<?xml version="1.0" encoding="UTF-8"?>
<svg version="1.1" viewBox="0 0 2000 2000" width="500" height="500" xmlns="http://www.w3.org/2000/svg">
<path transform="translate(0)" d="m0 0h2e3v2e3h-2e3z" fill="#FDFDFD"/>
<path transform="translate(803,562)" d="m0 0h54l44 2 31 2 92 9 25 5 33 10 30 11 35 15 57 27 22 12 19 11 27 16 4 4-28-1h-138l-15 1 36 2 49 3 93 9 41 5 51 8 38 7 40 9 48 13 37 11 52 19 34 14-5-4-34-18-48-24-25-11-4-3h22l25 1 30 4 30 7 19 7 16 8 13 8 13 11 8 8 12 16v2l-45 7-34 4-37 3-50 2-37-2-58-4-124-11-64-6-120-12-48-5v2l5 1 51 22 43 18 30 12 19 7 20 5 15 2 32 2 41 1h19l16-16 14-8 12-5 14-3h21l41 3 40 3h40l33-2 31-3h13l12 3 11 6 9 10 7 12 16-1 20-2h7l3 17v5l-1 1-49 3-78 2-26 1h-88l-92-3-41-1-60-2-50-1v2h12l114 10 104 8 59 4h29l49-5 81-11 30-4 8-1 1 1 1 18v27l-12 2-66 9v2l24-1 33-3h6v15l-1 1-25 2-22 5-40 10-42 11-18 3h-23l-20-3-70-13-49-8-32-2-47-1h-29l-45 1-17 1-3 1 71 3 63 3 33 3 58 9 79 13 7 1h22l23-4 52-13 36-8 13-3 12-2h20l6 4 3 4 1 4v12l-3 16-4 6-5 4-9 4-10 2-39 4-20 2-16 20-8 8-15 10-15 6-13 4-13 3h-3v2h11l79 8 51 6 18 3 7 4-1 3-24 3-19 1-115 1-76-1-137-3-132-4-111-5-61-3-87-6-113-9-86-7-149-13-158-14-96-9-6-1v-1l12-1 34-1-5-5-12-11-7-7-9-14-7-15-6-20-3-14-27-16-8-5 1-6 9-15 1-3v-12l-6-37-3-18-1-18 2-19 6-27 10-36 4-9 5-5 12-5 22-5 14-2 34-2 27-1h76l18 2 18 4 15 5 27 12 11 5 4 1 107 1 299 1 35 1 56 3 48 5 55 8 39 8 32 8 35 10 40 13 30 12 6 2v-2l-6-2-21-12-22-11-25-11-39-14-44-12-33-7-40-6-32-3-49-2-64-1h-66l-41 1-7-6-9-11-11-12-7-8-12-14-13-14-7-8-18-18-16-12-14-8-12-5-20-4-8-1h-33l-21 2-30 5-35 9-32 11-32 14-18 8-19 10-26 15 19-9 28-14 30-13 23-9 34-11 28-7 29-5 20-2h24l19 2 23 6 19 9 11 8 15 14 15 15 7 8 13 14 7 8 11 13 13 15 1 3-1 1h-266l-14-3-23-11-11-5-16-5-18-2h-83v-2l12-7 16-11 19-12 22-13 29-15 31-14 33-13 30-10 36-9 34-6 29-3z" fill="#201512"/>
<path transform="translate(1545,1129)" d="m0 0 14 1 16 3 8 5 7 8 4 9 1 5 1 14v31l-1 59-3 10-6 9-6 5v135l-2 15-4 9-7 11-10 10-14 8-15 5-38 8-400 80-41 8-18 3-24 2h-14l-18-1-36-6-459-92-18-5-16-8-11-9-8-11-5-11-2-12-1-151-9-48-16-80-2-11v-5h23l12-1 3 8 14 74 8 43 1 2 9 1 3-9 17-79 8-36 1-2 34-1-1 8-20 87-10 43-5 12-4 5-10 5-4 1-15 1-1 1v108h1091l-1-107-2-1h-18l-17-1-12-3-8-4-7-6-5-8-3-14v-94l2-11 5-10 8-7 8-4 13-3z" fill="#D49843"/>
<path transform="translate(984,418)" d="m0 0h31l26 3 42 8 444 89 16 5 13 7 11 11 8 14 4 11 1 40v89h-20l-14-1-1-102-1-17-3-8-2-5-4-2-10-4-36-8-124-25-193-39-98-20-39-7-19-2h-37l-23 3-188 38-252 51-38 8-12 4-5 4-5 10-1 6-1 65-8 5-25 14h-1v-97l5-14 7-11 10-10 11-7 15-5 28-6 456-91 20-3z" fill="#D49843"/>
<path transform="translate(1018,818)" d="m0 0h11l14 3 13 8 12 11 8 11 8 14 7 19 5 24 1 10v29l-3 19-5 18-7 16-8 13-8 10-10 9-13 8-9 3-8 1h-12l-13-4-12-6-10-9-9-12-9-16-6-15-5-21-2-16v-31l4-22 5-16 7-16 9-14 11-12 10-8 10-5z" fill="#FCFBF8"/>
<path transform="translate(1545,1129)" d="m0 0 14 1 16 3 8 5 7 8 4 9 1 5 1 14v31l-1 59-3 10-6 9-8 7-14 4-8 1h-31l-17-1-12-3-8-4-7-6-5-8-3-14v-94l2-11 5-10 8-7 8-4 13-3z" fill="#201512"/>
<path transform="translate(589,1131)" d="m0 0h31l14 3 12 6 7 8 4 9 2 10v29l-3 14-7 11-9 7h-2l1 3 5 5 7 14 14 40-4 2h-31l-2-1-18-54-1-1h-27l-1 55-2 1h-32l-2-1v-158l1-1z" fill="#201512"/>
<path transform="translate(381,809)" d="m0 0h12l10 4 10 8 9 12 9 21 4 16 2 16v24l-3 20-6 21-5 12-6 10-9 10-9 7-11 4h-11l-11-4-10-9-7-8-8-16-5-19-2-13v-32l4-26 5-16 5-12 11-16 7-7 11-6z" fill="#FCF9F6"/>
<path transform="translate(1117,1131)" d="m0 0h25l18 1 2 2 14 66 12 57 7 34-2 1h-33l-3-3-6-31v-2l-51 1-4 15-4 18-2 2h-27l-6-1 4-17 17-69 12-47 5-13 4-6 5-4 6-3z" fill="#201512"/>
<path transform="translate(815,1132)" d="m0 0h16l6 7 21 31 17 25 18 27 5 5-1-19v-48l1-27 30-1 1 5v147l-1 7-1 1h-22l-6-5-16-24-15-22-11-16-8-12-9-13v-2h-3l1 2v27l-1 64-1 1h-28l-2-1v-158z" fill="#201512"/>
<path transform="translate(1234,1132)" d="m0 0h13l1 1 1 125 1 2h44l1-5 1-122 35-1 2 7v114l-2 16-5 10-4 5-10 6-9 3-6 1-20 1h-13l-18-1-13-3-10-6-7-8-4-10-1-6v-128z" fill="#201512"/>
<path transform="translate(511,970)" d="m0 0h26l44 2 60 5 35 5 113 20 73 12 43 4 48 3h10l-1 3-3 1h-37l-123-5-69-2-56-1-179-4-24-1-1-2 13-8 10-9 8-9 8-13z" fill="#FCFAF7"/>
<path transform="translate(689,1132)" d="m0 0h93l1 1v21l-1 10-58 1v29l54 1v20l-1 12h-54l1 32h59l1 1v31l-2 1h-95v-159z" fill="#201512"/>
<path transform="translate(421,1131)" d="m0 0h6l3 8 14 74 8 43 1 2 9 1 3-9 17-79 8-36 1-2 34-1-1 8-20 87-10 43-5 12-4 5-10 5-4 1h-37l-13-2-4-26-7-37-16-80-2-11v-5h23z" fill="#201512"/>
<path transform="translate(566,761)" d="m0 0 25 2 177 10 177 11 19 1v4l-10 14-8 15-6 13-9-1-265-48-55-10-23-4-20-4-2-1z" fill="#FCFAF8"/>
<path transform="translate(945,1132)" d="m0 0h108l1 1v22l-1 9h-35l-1 127-2 1h-32l-2-1-1-125-1-1-35-1v-30z" fill="#201512"/>
<path transform="translate(1350,1132)" d="m0 0h107l1 1v12l-1 19-35 1-1 126-1 1h-34l-1-1-1-125-1-1-34-1-1-2v-28z" fill="#201512"/>
<path transform="translate(1377,1017)" d="m0 0h43l9 10 5 6 13 10 17 9 3 1-1 3-33-3-80-5-160-9-25-2-3-1 1-4 8-10 4-1 163-3z" fill="#FCFAF7"/>
<path transform="translate(1512,1163)" d="m0 0h39l6 2 1 2v92l-5 2h-41l-2-3v-92z" fill="#FCFBF8"/>
<path transform="translate(420,1060)" d="m0 0h19l15 1 1 198-3-1-3-12-6-33-14-74-2-7h-7l-1-71z" fill="#D49843"/>
<path transform="translate(999,1442)" d="m0 0 3 1 10 32 36 1v3l-14 9-13 9 1 7 9 27v2l-5-1-13-10-11-8-6 1-13 10-9 7h-4l2-9 7-21v-5l-9-6-13-9-6-3 1-3 35-1 4-9z" fill="#FEFEFE"/>
<path transform="translate(393,733)" d="m0 0h16l12 3 15 8 10 9 10 11 10 16 11 23 7 19 7 26 1 7h-2l-12-25-11-21-13-19-12-13-9-8-14-9-11-5-16-3-16 1-14 4-15 8-10 8-8 6-1-3 11-12 13-11 13-9 13-6z" fill="#FCF9F5"/>
<path transform="translate(1023,965)" d="m0 0 3 1 12 23 14 28-1 5-10 6-7 3-5 1h-15l-12-5-11-8 1-5 13-24 13-22z" fill="#201512"/>
<path transform="translate(960,912)" d="m0 0 6 2 28 15 7 5 2 4v7l-4 10-9 16-7 11-8 13h-3l-7-17-5-20-2-21v-10l1-14z" fill="#201512"/>
<path transform="translate(1035,833)" d="m0 0 11 4 9 6 8 8 9 13 7 15 1 7-5 3-31 16-3 2h-6l-1-3v-70z" fill="#201512"/>
<path transform="translate(1085,917)" d="m0 0 3 1v27l-3 17-5 17-8 17-4-1-5-10-9-15-10-18-1-4v-8l3-5 17-8 21-9z" fill="#201512"/>
<path transform="translate(1011,835)" d="m0 0h2v67l-2 5-6 1-11-9-14-10-10-7 1-7 8-14 6-8 8-7 9-7z" fill="#201512"/>
<path transform="translate(820,1441)" d="m0 0 3 1 6 20v3h26l-1 4-17 12 1 7 5 15 1 4-5-1-13-10-4-3-4 2-11 8-6 4-2-1 1-5 7-20-5-2-15-10v-3l2-1h23z" fill="#FEFEFE"/>
<path transform="translate(1176,1441)" d="m0 0h3l5 17 2 6 20 1h5v4l-18 12 3 12 4 10v4l-5-1-7-6-10-7-7 4-10 8h-2v2h-3v-5l5-12 2-8-19-13v-3l4-1h22l2-10 2-5z" fill="#FEFEFE"/>
<path transform="translate(583,1163)" d="m0 0h36l2 1 1 7v29l-3 3h-36l-2-2v-35z" fill="#FAF5EE"/>
<path transform="translate(1122,1164)" d="m0 0h10l2 2 11 56v2l-2 1h-35l-1-1 1-9 10-43 3-7z" fill="#FBF8F4"/>
<path transform="translate(382,928)" d="m0 0h2l4 9 11 37v5l-8 4h-12l-12-6-7-8-2-5 7-12 8-12 7-10z" fill="#201512"/>
<path transform="translate(345,876)" d="m0 0 4 2 13 12 7 7 3 6-1 7-7 12-14 21h-3l-4-13-1-8v-29z" fill="#201512"/>
<path transform="translate(556,904)" d="m0 0h17l32 2 154 22 38 6 4 2h-9l-95-11-128-15-15-3-2-2z" fill="#F7EDE0"/>
<path transform="translate(402,826)" d="m0 0 5 2 9 10 8 16 5 17-1 5-12 5-14 5-4-1v-13z" fill="#201512"/>
<path transform="translate(1542,1163)" d="m0 0h9l6 2 1 2v92l-5 2h-8v-96z" fill="#D49843"/>
<path transform="translate(428,901)" d="m0 0h2v15l-4 19-6 16-5 9h-2l-13-35-1-4v-10l5-3z" fill="#201512"/>
<path transform="translate(384,822)" d="m0 0h3v14l-3 37-2 6-4-1-11-12-9-11-3-4 1-4 7-10 9-9z" fill="#201512"/>
<path transform="translate(1233,922)" d="m0 0 77 2 51 3 22 2v3h-17l-49-2-64-4-16-2z" fill="#F3E5D0"/>
<path transform="translate(1547,1125)" d="m0 0h32l1 1v10l-9-3-21-3h-8z" fill="#D49843"/>
<path transform="translate(768,931)" d="m0 0h8l25 4v1h-9l-19-2-5-2z" fill="#E2BC85"/>
<path transform="translate(520,645)" d="m0 0 2 1-1 3-22 11-3-1z" fill="#E9CBA2"/>
<path transform="translate(1212,944)" d="m0 0h10v1l6 1v1h-22l-5-1v-1z" fill="#DFB476"/>
</svg>
